<?xml version="1.0" encoding="UTF-8" standalone="no"?>
<!-- Created with Inkscape (http://www.inkscape.org/) -->

<svg
  xmlns:dc="http://purl.org/dc/elements/1.1/"
  xmlns:cc="http://creativecommons.org/ns#"
  xmlns:rdf="http://www.w3.org/1999/02/22-rdf-syntax-ns#"
  xmlns:svg="http://www.w3.org/2000/svg"
  xmlns="http://www.w3.org/2000/svg"
  xmlns:sodipodi="http://sodipodi.sourceforge.net/DTD/sodipodi-0.dtd"
  xmlns:inkscape="http://www.inkscape.org/namespaces/inkscape"
  version="1.1"
  id="svg2"
  xml:space="preserve"
  width="293.69333"
  height="339.12665"
  viewBox="0 0 293.69333 339.12665"
  sodipodi:docname="straight-hex-nd-logo-no-shadow.svg"
  inkscape:version="0.92.5 (2060ec1f9f, 2020-04-08)"
  class="nd-logo"
>
  <metadata id="metadata8">
    <rdf:RDF
      ><cc:Work rdf:about=""
        ><dc:format>image/svg+xml</dc:format
        ><dc:type
          rdf:resource="http://purl.org/dc/dcmitype/StillImage" /><dc:title></dc:title></cc:Work
    ></rdf:RDF>
  </metadata>
  <defs id="defs6">
    <clipPath clipPathUnits="userSpaceOnUse" id="clipPath28">
      <path
        d="M 0,648 H 1152 V 0 H 0 Z"
        id="path26"
        inkscape:connector-curvature="0"
      />
    </clipPath>
    <clipPath clipPathUnits="userSpaceOnUse" id="clipPath44">
      <path
        d="m 258.873,292.236 18.795,-24.248 16.278,20.218 -20.069,23.299 z"
        id="path42"
        inkscape:connector-curvature="0"
      />
    </clipPath>
    <linearGradient
      x1="0"
      y1="0"
      x2="1"
      y2="0"
      gradientUnits="userSpaceOnUse"
      gradientTransform="matrix(19.319765,-24.191706,-24.191706,-19.319765,266.57199,302.18234)"
      spreadMethod="pad"
      id="linearGradient54"
    >
      <stop
        style="stop-opacity: 1; stop-color: #ffffff;"
        offset="0"
        id="stop50"
      />
      <stop
        style="stop-opacity: 1; stop-color: #bcbec0;"
        offset="1"
        id="stop52"
      />
    </linearGradient>
    <clipPath clipPathUnits="userSpaceOnUse" id="clipPath64">
      <path
        d="M 0,648 H 1152 V 0 H 0 Z"
        id="path62"
        inkscape:connector-curvature="0"
      />
    </clipPath>
    <clipPath clipPathUnits="userSpaceOnUse" id="clipPath96">
      <path
        d="m 825.936,286.295 18.794,-24.248 16.278,20.218 -20.069,23.299 z"
        id="path94"
        inkscape:connector-curvature="0"
      />
    </clipPath>
    <linearGradient
      x1="0"
      y1="0"
      x2="1"
      y2="0"
      gradientUnits="userSpaceOnUse"
      gradientTransform="matrix(19.884466,-22.646198,-22.646198,-19.884466,833.24908,294.72272)"
      spreadMethod="pad"
      id="linearGradient106"
    >
      <stop
        style="stop-opacity: 1; stop-color: #c9000f;"
        offset="0"
        id="stop102"
      />
      <stop
        style="stop-opacity: 1; stop-color: #64091e;"
        offset="1"
        id="stop104"
      />
    </linearGradient>
    <clipPath clipPathUnits="userSpaceOnUse" id="clipPath116">
      <path
        d="M 0,648 H 1152 V 0 H 0 Z"
        id="path114"
        inkscape:connector-curvature="0"
      />
    </clipPath>
  </defs>
  <sodipodi:namedview
    pagecolor="#ffffff"
    bordercolor="#666666"
    borderopacity="1"
    objecttolerance="10"
    gridtolerance="10"
    guidetolerance="10"
    inkscape:pageopacity="0"
    inkscape:pageshadow="2"
    inkscape:window-width="1920"
    inkscape:window-height="1163"
    id="namedview4"
    showgrid="false"
    inkscape:zoom="1.8072917"
    inkscape:cx="115.27436"
    inkscape:cy="137.21526"
    inkscape:window-x="1920"
    inkscape:window-y="0"
    inkscape:window-maximized="1"
    inkscape:current-layer="g10"
  />
  <g
    id="g10"
    inkscape:groupmode="layer"
    inkscape:label="logo"
    transform="matrix(1.3333333,0,0,-1.3333333,-236.90253,595.53412)"
  >
    <g id="g14" transform="translate(177.6769,383.0646)">
      <path
        d="M 0,0 110.135,63.586 220.27,0 V -127.173 L 110.135,-190.759 0,-127.173 Z"
        class="nd-logo-background"
        id="path16"
        inkscape:connector-curvature="0"
      />
    </g>
    <g id="g18" transform="translate(290.6324,293.269)">
      <path
        d="m 0,0 v 4.603 h 3.314 3.682 2.078 v 33.06 H -16.755 V 18.236 L -71.792,89.582 H -94.374 V -25.282 h 24.565 v 73.344 l 56.844,-73.344 H 3.314 V 0 Z"
        class="nd-logo-foreground"
        id="path20"
        inkscape:connector-curvature="0"
      />
    </g>
    <g id="g22">
      <g id="g24" clip-path="url(#clipPath28)">
        <g id="g30" transform="translate(362.8237,366.8657)">
          <path
            d="M 0,0 C -10.549,10.725 -25.55,15.985 -45.002,15.985 H -61.766 L -75.012,-7.082 h 11.894 4.658 11.812 c 13.679,0 23.243,-3.129 28.679,-9.226 5.598,-6.098 8.404,-14.663 8.404,-25.374 0,-21.098 -9.887,-34.115 -36.921,-34.115 h -16.632 v 2.2 h -2.077 v -25.281 h 20.369 c 19.6,0 34.6,5.112 44.988,15.5 10.549,10.373 15.823,24.389 15.823,41.696 C 15.985,-24.389 10.711,-10.534 0,0"
            class="nd-logo-foreground"
            id="path32"
            inkscape:connector-curvature="0"
          />
        </g>
        <g id="g34" transform="translate(299.7061,293.269)">
          <path
            d="M 0,0 V 4.603 H -2.077 -5.76 -9.074 V 0 h 3.314 v -25.282 h 3.683 V 0 Z"
            class="nd-logo-foreground"
            id="path36"
            inkscape:connector-curvature="0"
          />
        </g>
      </g>
    </g>
    <g id="g66" transform="translate(270.9742,330.4629)">
      <path
        d="M 0,0 15.917,27.568 31.833,0 Z"
        class="nd-logo-foreground"
        id="path68"
        inkscape:connector-curvature="0"
      />
    </g>
    <g id="g70" transform="translate(273.8779,332.1174)">
      <path
        d="m 0,0 v -59.28 l 3.79,-4.85 h 16.279 3.682 2.117 v 25.282 4.603 V 0 Z"
        class="nd-logo-foreground"
        id="path72"
        inkscape:connector-curvature="0"
      />
    </g>
  </g>
</svg>
